<svg width="205" height="23" viewBox="0 0 205 23" fill="none" xmlns="http://www.w3.org/2000/svg">
<path d="M12.293 18H9.89062V9.59766C9.89062 8.76953 9.73438 7.99219 9.42188 7.26562C9.10938 6.53906 8.67969 5.90625 8.13281 5.36719C7.59375 4.82031 6.95703 4.39062 6.22266 4.07812C5.49609 3.75781 4.71875 3.59766 3.89062 3.59766H2.60156V18H0.199219V1.19531H3.89062C4.65625 1.19531 5.39062 1.29688 6.09375 1.5C6.80469 1.69531 7.46875 1.97266 8.08594 2.33203C8.70312 2.69141 9.26562 3.12109 9.77344 3.62109C10.2812 4.12109 10.7227 4.67578 11.0977 5.28516C11.4648 4.67578 11.9023 4.12109 12.4102 3.62109C12.918 3.12109 13.4805 2.69141 14.0977 2.33203C14.7148 1.97266 15.375 1.69531 16.0781 1.5C16.7891 1.29688 17.5273 1.19531 18.293 1.19531H21.9961V18H19.5938V3.59766H18.293C17.4648 3.59766 16.6875 3.75781 15.9609 4.07812C15.2344 4.39062 14.5977 4.82031 14.0508 5.36719C13.5117 5.90625 13.082 6.53906 12.7617 7.26562C12.4492 7.99219 12.293 8.76953 12.293 9.59766V18ZM41.0273 9C41.0273 9.58594 40.918 10.1328 40.6992 10.6406C40.4805 11.1484 40.1797 11.5938 39.7969 11.9766C39.4219 12.3516 38.9766 12.6484 38.4609 12.8672C37.9531 13.0859 37.4102 13.1953 36.832 13.1953H27.6328C27.8047 13.5469 28.0195 13.8711 28.2773 14.168C28.5352 14.4648 28.8242 14.7188 29.1445 14.9297C29.4648 15.1406 29.8125 15.3047 30.1875 15.4219C30.5703 15.5391 30.9688 15.5977 31.3828 15.5977H39.2344V18H31.3828C30.4766 17.9922 29.625 17.8164 28.8281 17.4727C28.0312 17.1211 27.3359 16.6484 26.7422 16.0547C26.1562 15.4531 25.6914 14.7539 25.3477 13.957C25.0039 13.1602 24.832 12.3086 24.832 11.4023C24.832 10.4961 25.0039 9.64453 25.3477 8.84766C25.6914 8.05078 26.1562 7.35547 26.7422 6.76172C27.3359 6.16016 28.0312 5.6875 28.8281 5.34375C29.625 4.99219 30.4766 4.8125 31.3828 4.80469H36.832C37.4102 4.80469 37.9531 4.91406 38.4609 5.13281C38.9766 5.35156 39.4219 5.65234 39.7969 6.03516C40.1797 6.41016 40.4805 6.85156 40.6992 7.35938C40.918 7.86719 41.0273 8.41406 41.0273 9ZM36.832 10.8047C37.0742 10.8047 37.3047 10.7578 37.5234 10.6641C37.7422 10.5703 37.9336 10.4414 38.0977 10.2773C38.2617 10.1133 38.3906 9.92188 38.4844 9.70312C38.5781 9.48438 38.625 9.25 38.625 9C38.625 8.75781 38.5781 8.52734 38.4844 8.30859C38.3906 8.08984 38.2617 7.89844 38.0977 7.73438C37.9336 7.57031 37.7422 7.44141 37.5234 7.34766C37.3047 7.24609 37.0742 7.19531 36.832 7.19531H31.3828C30.8516 7.19531 30.3516 7.28906 29.8828 7.47656C29.4219 7.66406 29.0078 7.92188 28.6406 8.25C28.2812 8.57031 27.9805 8.95312 27.7383 9.39844C27.5039 9.83594 27.3516 10.3047 27.2812 10.8047H36.832ZM58.1016 18H55.6992V7.19531H49.1016C48.5234 7.19531 47.9805 7.30859 47.4727 7.53516C46.9727 7.75391 46.5352 8.05469 46.1602 8.4375C45.7852 8.8125 45.4883 9.25781 45.2695 9.77344C45.0586 10.2812 44.9531 10.8242 44.9531 11.4023C44.9531 11.9805 45.0586 12.5234 45.2695 13.0312C45.4883 13.5312 45.7852 13.9727 46.1602 14.3555C46.5352 14.7305 46.9727 15.0312 47.4727 15.2578C47.9805 15.4766 48.5234 15.5898 49.1016 15.5977H54.5039V18H49.1016C48.1953 18 47.3438 17.8281 46.5469 17.4844C45.75 17.1328 45.0547 16.6602 44.4609 16.0664C43.875 15.4648 43.4102 14.7656 43.0664 13.9688C42.7227 13.1641 42.5508 12.3086 42.5508 11.4023C42.5508 10.4961 42.7227 9.64453 43.0664 8.84766C43.4102 8.05078 43.875 7.35547 44.4609 6.76172C45.0547 6.16016 45.75 5.6875 46.5469 5.34375C47.3438 4.99219 48.1953 4.8125 49.1016 4.80469H55.6992V0H58.1016V18ZM64.5469 1.80469C64.5469 2.05469 64.5 2.28906 64.4062 2.50781C64.3125 2.71875 64.1836 2.90625 64.0195 3.07031C63.8555 3.23438 63.6641 3.36328 63.4453 3.45703C63.2266 3.55078 62.9961 3.59766 62.7539 3.59766C62.5039 3.59766 62.2695 3.55078 62.0508 3.45703C61.832 3.36328 61.6406 3.23438 61.4766 3.07031C61.3125 2.90625 61.1836 2.71875 61.0898 2.50781C60.9961 2.28906 60.9492 2.05469 60.9492 1.80469C60.9492 1.5625 60.9961 1.33203 61.0898 1.11328C61.1836 0.894531 61.3125 0.703125 61.4766 0.539062C61.6406 0.375 61.832 0.246094 62.0508 0.152344C62.2695 0.0507812 62.5039 0 62.7539 0C62.9961 0 63.2266 0.0507812 63.4453 0.152344C63.6641 0.246094 63.8555 0.375 64.0195 0.539062C64.1836 0.703125 64.3125 0.894531 64.4062 1.11328C64.5 1.33203 64.5469 1.5625 64.5469 1.80469ZM63.9492 18H61.5469V4.80469H63.9492V18ZM82.4414 18H70.4414C69.8555 18 69.3086 17.8906 68.8008 17.6719C68.293 17.4531 67.8477 17.1562 67.4648 16.7812C67.082 16.3984 66.7812 15.9531 66.5625 15.4453C66.3438 14.9297 66.2344 14.3828 66.2344 13.8047C66.2344 13.2188 66.3438 12.6719 66.5625 12.1641C66.7812 11.6562 67.082 11.2109 67.4648 10.8281C67.8477 10.4453 68.293 10.1445 68.8008 9.92578C69.3086 9.70703 69.8555 9.59766 70.4414 9.59766H78.832V12H70.4414C70.1914 12 69.957 12.0508 69.7383 12.1523C69.5195 12.2461 69.3281 12.375 69.1641 12.5391C69 12.7031 68.8711 12.8945 68.7773 13.1133C68.6836 13.332 68.6367 13.5625 68.6367 13.8047C68.6367 14.0547 68.6836 14.2891 68.7773 14.5078C68.8711 14.7188 69 14.9062 69.1641 15.0703C69.3281 15.2344 69.5195 15.3633 69.7383 15.457C69.957 15.5508 70.1914 15.5977 70.4414 15.5977H80.0391V9C80.0391 8.75781 79.9883 8.52734 79.8867 8.30859C79.793 8.08984 79.6641 7.89844 79.5 7.73438C79.3359 7.57031 79.1445 7.44141 78.9258 7.34766C78.707 7.24609 78.4766 7.19531 78.2344 7.19531H68.6367V4.80469H78.2344C78.8203 4.80469 79.3672 4.91406 79.875 5.13281C80.3828 5.35156 80.8281 5.65234 81.2109 6.03516C81.5938 6.41016 81.8945 6.85156 82.1133 7.35938C82.332 7.86719 82.4414 8.41406 82.4414 9V18ZM114.199 18H111.797V13.1953H98.3906V10.8047H111.797V3.59766H103.184C102.363 3.59766 101.59 3.75781 100.863 4.07812C100.137 4.39062 99.5039 4.82031 98.9648 5.36719C98.4258 5.90625 97.9961 6.53906 97.6758 7.26562C97.3633 7.99219 97.207 8.76953 97.207 9.59766V18H94.8047V9.59766C94.8047 8.82422 94.9023 8.08203 95.0977 7.37109C95.3008 6.65234 95.582 5.98438 95.9414 5.36719C96.3086 4.74219 96.7461 4.17578 97.2539 3.66797C97.7695 3.15234 98.3359 2.71094 98.9531 2.34375C99.5781 1.97656 100.246 1.69531 100.957 1.5C101.668 1.29688 102.41 1.19531 103.184 1.19531H114.199V18ZM132.586 18.5977C132.586 19.1836 132.473 19.7305 132.246 20.2383C132.027 20.7461 131.727 21.1914 131.344 21.5742C130.969 21.957 130.523 22.2578 130.008 22.4766C129.5 22.6953 128.957 22.8047 128.379 22.8047H118.781V20.4023H128.379C128.621 20.4023 128.852 20.3555 129.07 20.2617C129.289 20.168 129.48 20.0391 129.645 19.875C129.809 19.7109 129.938 19.5195 130.031 19.3008C130.133 19.082 130.184 18.8477 130.184 18.5977V7.19531H123.586C123.008 7.20312 122.465 7.32031 121.957 7.54688C121.457 7.76562 121.02 8.06641 120.645 8.44922C120.27 8.82422 119.973 9.26562 119.754 9.77344C119.543 10.2812 119.438 10.8242 119.438 11.4023C119.438 11.9805 119.543 12.5234 119.754 13.0312C119.973 13.5312 120.27 13.9727 120.645 14.3555C121.02 14.7305 121.457 15.0312 121.957 15.2578C122.465 15.4766 123.008 15.5898 123.586 15.5977H128.988V18H123.586C122.68 17.9922 121.828 17.8164 121.031 17.4727C120.234 17.1211 119.539 16.6484 118.945 16.0547C118.359 15.4531 117.895 14.7539 117.551 13.957C117.207 13.1602 117.035 12.3086 117.035 11.4023C117.035 10.4961 117.207 9.64453 117.551 8.84766C117.895 8.05078 118.359 7.35547 118.945 6.76172C119.539 6.16016 120.234 5.6875 121.031 5.34375C121.828 4.99219 122.68 4.8125 123.586 4.80469H132.586V18.5977ZM151.395 9C151.395 9.58594 151.285 10.1328 151.066 10.6406C150.848 11.1484 150.547 11.5938 150.164 11.9766C149.789 12.3516 149.344 12.6484 148.828 12.8672C148.32 13.0859 147.777 13.1953 147.199 13.1953H138C138.172 13.5469 138.387 13.8711 138.645 14.168C138.902 14.4648 139.191 14.7188 139.512 14.9297C139.832 15.1406 140.18 15.3047 140.555 15.4219C140.938 15.5391 141.336 15.5977 141.75 15.5977H149.602V18H141.75C140.844 17.9922 139.992 17.8164 139.195 17.4727C138.398 17.1211 137.703 16.6484 137.109 16.0547C136.523 15.4531 136.059 14.7539 135.715 13.957C135.371 13.1602 135.199 12.3086 135.199 11.4023C135.199 10.4961 135.371 9.64453 135.715 8.84766C136.059 8.05078 136.523 7.35547 137.109 6.76172C137.703 6.16016 138.398 5.6875 139.195 5.34375C139.992 4.99219 140.844 4.8125 141.75 4.80469H147.199C147.777 4.80469 148.32 4.91406 148.828 5.13281C149.344 5.35156 149.789 5.65234 150.164 6.03516C150.547 6.41016 150.848 6.85156 151.066 7.35938C151.285 7.86719 151.395 8.41406 151.395 9ZM147.199 10.8047C147.441 10.8047 147.672 10.7578 147.891 10.6641C148.109 10.5703 148.301 10.4414 148.465 10.2773C148.629 10.1133 148.758 9.92188 148.852 9.70312C148.945 9.48438 148.992 9.25 148.992 9C148.992 8.75781 148.945 8.52734 148.852 8.30859C148.758 8.08984 148.629 7.89844 148.465 7.73438C148.301 7.57031 148.109 7.44141 147.891 7.34766C147.672 7.24609 147.441 7.19531 147.199 7.19531H141.75C141.219 7.19531 140.719 7.28906 140.25 7.47656C139.789 7.66406 139.375 7.92188 139.008 8.25C138.648 8.57031 138.348 8.95312 138.105 9.39844C137.871 9.83594 137.719 10.3047 137.648 10.8047H147.199ZM156.152 18H153.75V4.80469H162.75C163.656 4.80469 164.508 4.98047 165.305 5.33203C166.102 5.67578 166.797 6.14844 167.391 6.75C167.984 7.34375 168.453 8.04297 168.797 8.84766C169.141 9.64453 169.312 10.4961 169.312 11.4023V18H166.91V11.4023C166.91 10.8242 166.801 10.2812 166.582 9.77344C166.363 9.26562 166.066 8.82422 165.691 8.44922C165.316 8.06641 164.875 7.76562 164.367 7.54688C163.867 7.32031 163.328 7.20312 162.75 7.19531H156.152V18ZM186.117 18H178.266C177.359 17.9922 176.508 17.8164 175.711 17.4727C174.914 17.1211 174.219 16.6484 173.625 16.0547C173.039 15.4531 172.574 14.7539 172.23 13.957C171.887 13.1602 171.715 12.3086 171.715 11.4023C171.715 10.4961 171.887 9.64453 172.23 8.84766C172.574 8.04297 173.039 7.34375 173.625 6.75C174.219 6.14844 174.914 5.67578 175.711 5.33203C176.508 4.98047 177.359 4.80469 178.266 4.80469H186.117V7.19531H178.266C177.688 7.20312 177.145 7.32031 176.637 7.54688C176.137 7.76562 175.699 8.06641 175.324 8.44922C174.949 8.82422 174.652 9.26562 174.434 9.77344C174.223 10.2812 174.117 10.8242 174.117 11.4023C174.117 11.9805 174.223 12.5234 174.434 13.0312C174.652 13.5391 174.949 13.9844 175.324 14.3672C175.699 14.7422 176.137 15.043 176.637 15.2695C177.145 15.4883 177.688 15.5977 178.266 15.5977H186.117V18ZM204.082 18.5977C204.082 19.1836 203.973 19.7305 203.754 20.2383C203.535 20.7461 203.234 21.1914 202.852 21.5742C202.477 21.957 202.031 22.2578 201.516 22.4766C201.008 22.6953 200.465 22.8047 199.887 22.8047H190.289V20.4023H199.887C200.129 20.4023 200.359 20.3555 200.578 20.2617C200.797 20.168 200.988 20.0391 201.152 19.875C201.316 19.7109 201.445 19.5195 201.539 19.3008C201.633 19.082 201.68 18.8477 201.68 18.5977V18H195.082C194.176 18 193.324 17.8281 192.527 17.4844C191.73 17.1328 191.035 16.6602 190.441 16.0664C189.855 15.4648 189.391 14.7656 189.047 13.9688C188.703 13.1641 188.531 12.3086 188.531 11.4023V4.80469H190.934V11.4023C190.934 11.9805 191.039 12.5234 191.25 13.0312C191.469 13.5312 191.766 13.9727 192.141 14.3555C192.516 14.7305 192.953 15.0312 193.453 15.2578C193.961 15.4766 194.504 15.5898 195.082 15.5977H201.68V4.80469H204.082V18.5977Z" fill="#FE0060"/>
</svg>
