<svg width="31" height="12" viewBox="0 0 31 12" fill="none" xmlns="http://www.w3.org/2000/svg">
<path d="M8.58594 12H6.98438V6.39844C6.98438 5.84635 6.88021 5.32812 6.67188 4.84375C6.46354 4.35938 6.17708 3.9375 5.8125 3.57812C5.45312 3.21354 5.02865 2.92708 4.53906 2.71875C4.05469 2.50521 3.53646 2.39844 2.98438 2.39844H2.125V12H0.523438V0.796875H2.98438C3.49479 0.796875 3.98438 0.864583 4.45312 1C4.92708 1.13021 5.36979 1.3151 5.78125 1.55469C6.19271 1.79427 6.56771 2.08073 6.90625 2.41406C7.24479 2.7474 7.53906 3.11719 7.78906 3.52344C8.03385 3.11719 8.32552 2.7474 8.66406 2.41406C9.0026 2.08073 9.3776 1.79427 9.78906 1.55469C10.2005 1.3151 10.6406 1.13021 11.1094 1C11.5833 0.864583 12.0755 0.796875 12.5859 0.796875H15.0547V12H13.4531V2.39844H12.5859C12.0339 2.39844 11.5156 2.50521 11.0312 2.71875C10.5469 2.92708 10.1224 3.21354 9.75781 3.57812C9.39844 3.9375 9.11198 4.35938 8.89844 4.84375C8.6901 5.32812 8.58594 5.84635 8.58594 6.39844V12ZM30.4766 12H28.875V8.79688H19.9375V7.20312H28.875V2.39844H23.1328C22.5859 2.39844 22.0703 2.50521 21.5859 2.71875C21.1016 2.92708 20.6797 3.21354 20.3203 3.57812C19.9609 3.9375 19.6745 4.35938 19.4609 4.84375C19.2526 5.32812 19.1484 5.84635 19.1484 6.39844V12H17.5469V6.39844C17.5469 5.88281 17.612 5.38802 17.7422 4.91406C17.8776 4.4349 18.0651 3.98958 18.3047 3.57812C18.5495 3.16146 18.8411 2.78385 19.1797 2.44531C19.5234 2.10156 19.901 1.80729 20.3125 1.5625C20.7292 1.31771 21.1745 1.13021 21.6484 1C22.1224 0.864583 22.6172 0.796875 23.1328 0.796875H30.4766V12Z" fill="#FE0060"/>
</svg>
